# xmcd CD database file generated by libcdaudio 0.99.12p2
# 
# Track frame offsets:
#       150
#       14445
#       34072
#       49000
#       68172
#       85557
#       96785
#       109467
#       128867
#       149305
#       163062
#       178815
# 
# Disc length: 2561 seconds
# 
# Revision: 0
# Processed by: cddbd v1.5.2PL0 Copyright (c) Steve Scherf et al.
# Submitted via: libcdaudio 0.99.12p2
# 
DISCID=a209ff0c
DTITLE=Roger Whittaker - 37 All-Time Favorites - CD 3 (Standards)
DYEAR=1900
DGENRE=
TTITLE0=Make the World Go Away
TTITLE1=Leaving on a Jet Plane
TTITLE2=Time in a Bottle
TTITLE3=For the Good Times
TTITLE4=Barroom Country Singer
TTITLE5=Blue Eyes Crying in the Rain
TTITLE6=Have I Told You Lately
TTITLE7=Always on my Mind
TTITLE8=Funny How Time Slips Away
TTITLE9=Gentle on my Mind
TTITLE10=Are You Lonesome Tonight
TTITLE11=Vaya con Dios
EXTD=
EXTT0=
EXTT1=
EXTT2=
EXTT3=
EXTT4=
EXTT5=
EXTT6=
EXTT7=
EXTT8=
EXTT9=
EXTT10=
EXTT11=
PLAYORDER=
